<svg xmlns="http://www.w3.org/2000/svg" xmlns:xlink="http://www.w3.org/1999/xlink" viewBox="0 0 264.46 40.19"><defs><style>.cls-1{fill:#fff;}.cls-2{fill:url(#Degradado_sin_nombre_4);}</style><linearGradient id="Degradado_sin_nombre_4" y1="20.1" x2="50.46" y2="20.1" gradientUnits="userSpaceOnUse"><stop offset="0" stop-color="#9201ff"/><stop offset="0.16" stop-color="#9b14fe"/><stop offset="0.5" stop-color="#b146fc"/><stop offset="0.97" stop-color="#d495f9"/><stop offset="1" stop-color="#d79bf9"/></linearGradient></defs><g id="Capa_2" data-name="Capa 2"><g id="Capa_1-2" data-name="Capa 1"><path class="cls-1" d="M63.1,3.63H75q8,0,12.83,4.45a15.05,15.05,0,0,1,4.86,11.66,15,15,0,0,1-4.86,11.65Q83,35.85,75,35.84H63.1Zm6.54,26.3H75a11.48,11.48,0,0,0,8.07-2.77,9.55,9.55,0,0,0,3-7.42,9.56,9.56,0,0,0-3-7.43A11.48,11.48,0,0,0,75,9.54H69.64Z"/><path class="cls-1" d="M119.64,23.39v2.16H101.37a7.09,7.09,0,0,0,2.14,4.07,5.61,5.61,0,0,0,3.87,1.51,6.42,6.42,0,0,0,6-3.17l5.68,1.2a11.55,11.55,0,0,1-4.57,5.53,13.17,13.17,0,0,1-7.07,1.87A11.89,11.89,0,0,1,98.63,33a12.4,12.4,0,0,1-3.56-9.14,12.43,12.43,0,0,1,3.58-9.16,12,12,0,0,1,8.83-3.58,11.66,11.66,0,0,1,8.43,3.44A12.41,12.41,0,0,1,119.64,23.39Zm-12.16-6.73a6.43,6.43,0,0,0-3.68,1.15,5.4,5.4,0,0,0-2.24,3.27h11.59A5.66,5.66,0,0,0,111,17.76,6,6,0,0,0,107.48,16.66Z"/><path class="cls-1" d="M146.61,11.8l-10,24h-6.73l-10-24h6.83l6.54,16.3,6.54-16.3Z"/><path class="cls-1" d="M172.91,11.85v24h-6.34V34a12.26,12.26,0,0,1-7.94,2.59,11.18,11.18,0,0,1-8.27-3.6,12.52,12.52,0,0,1-3.51-9.09,12.53,12.53,0,0,1,3.54-9.11,11.14,11.14,0,0,1,8.24-3.63,12,12,0,0,1,7.94,2.64V11.85ZM159.74,31a6.66,6.66,0,0,0,4.76-2,6.85,6.85,0,0,0,2.07-5.17,6.91,6.91,0,0,0-2.07-5.19,6.61,6.61,0,0,0-4.76-2,6.41,6.41,0,0,0-4.83,2,7.21,7.21,0,0,0-1.9,5.24,7.15,7.15,0,0,0,1.9,5.22A6.46,6.46,0,0,0,159.74,31Z"/><path class="cls-1" d="M176.66,29.5l6.4-1.3q.44,3.27,4.95,3.27a4.87,4.87,0,0,0,2.74-.68,2,2,0,0,0,1-1.73q0-1.59-2.64-2.16l-4.91-1a9.61,9.61,0,0,1-5-2.45,6,6,0,0,1-1.76-4.38,7.09,7.09,0,0,1,2.67-5.72,10.86,10.86,0,0,1,7.14-2.21,11.94,11.94,0,0,1,7,2,8,8,0,0,1,3.43,5.14l-6,1.21A3.47,3.47,0,0,0,190.2,17a5.14,5.14,0,0,0-3.15-.91,3.63,3.63,0,0,0-2.5.7,2.12,2.12,0,0,0-.77,1.65c0,1,.72,1.7,2.16,2l5.72,1.25a8.54,8.54,0,0,1,4.69,2.48,6.21,6.21,0,0,1,1.61,4.3,6.91,6.91,0,0,1-2.86,6,12.89,12.89,0,0,1-7.67,2.06,14.36,14.36,0,0,1-7.31-1.75A6.76,6.76,0,0,1,176.66,29.5Z"/><path class="cls-1" d="M217.53,29.5l1.83,5.28a13.26,13.26,0,0,1-6.25,1.78,9.64,9.64,0,0,1-6.93-2.38c-1.66-1.58-2.5-4-2.5-7.19V17h-5.14V11.85h5.14V4.59H210v7.26h7.84V17H210v9.47q0,4.14,3.51,4.14A8.66,8.66,0,0,0,217.53,29.5Z"/><path class="cls-1" d="M244,23.39v2.16H225.7a7.15,7.15,0,0,0,2.14,4.07,5.61,5.61,0,0,0,3.87,1.51,6.4,6.4,0,0,0,6-3.17l5.68,1.2a11.55,11.55,0,0,1-4.57,5.53,13.14,13.14,0,0,1-7.07,1.87A11.89,11.89,0,0,1,223,33a12.4,12.4,0,0,1-3.56-9.14A12.4,12.4,0,0,1,223,14.71a12,12,0,0,1,8.82-3.58,11.7,11.7,0,0,1,8.44,3.44A12.4,12.4,0,0,1,244,23.39Zm-12.16-6.73a6.43,6.43,0,0,0-3.68,1.15,5.34,5.34,0,0,0-2.23,3.27h11.58a5.7,5.7,0,0,0-2.11-3.32A6,6,0,0,0,231.81,16.66Z"/><path class="cls-1" d="M262.77,11.51a5.58,5.58,0,0,1,1.69.2l-.34,6.1h-1.39q-8.57,0-8.56,10.29v7.74h-6.35v-24h6.35v4.38A10,10,0,0,1,262.77,11.51Z"/><path class="cls-2" d="M32.53,8.81a19,19,0,0,0-13.4-5.12A19.3,19.3,0,0,0,5.56,8.81,17,17,0,0,0,0,21.94,17,17,0,0,0,5.56,35.07a19.3,19.3,0,0,0,13.57,5.12,19,19,0,0,0,13.4-5.12,17.1,17.1,0,0,0,5.52-13.13A17.1,17.1,0,0,0,32.53,8.81ZM26,29.43a9.67,9.67,0,0,1-6.89,2.89,10,10,0,0,1-7.07-2.86A9.8,9.8,0,0,1,9,21.94a9.8,9.8,0,0,1,3.06-7.52,10.08,10.08,0,0,1,7.07-2.86A9.72,9.72,0,0,1,26,14.45a9.9,9.9,0,0,1,3,7.49A9.89,9.89,0,0,1,26,29.43ZM50.46,0V21.84h-9V0Z"/></g></g></svg>